<svg xmlns="http://www.w3.org/2000/svg" viewBox="0 0 600 400">
  <defs>
    <radialGradient id="bg1" cx="50%" cy="40%" r="60%">
      <stop offset="0%" stop-color="#a8d8ea"/>
      <stop offset="100%" stop-color="#6aabcf"/>
    </radialGradient>
    <radialGradient id="ctr1" cx="50%" cy="50%" r="50%">
      <stop offset="0%" stop-color="#ffe066"/>
      <stop offset="100%" stop-color="#e6890a"/>
    </radialGradient>
  </defs>
  <rect width="600" height="400" fill="url(#bg1)"/>
  <rect y="280" width="600" height="120" fill="#5d8a55" opacity="0.6"/>
  <g transform="translate(300,190)">
    <ellipse cx="0" cy="-72" rx="16" ry="42" fill="#f8f8f0" stroke="#ddd" stroke-width="1" transform="rotate(0)"/>
    <ellipse cx="0" cy="-72" rx="16" ry="42" fill="#f8f8f0" stroke="#ddd" stroke-width="1" transform="rotate(40)"/>
    <ellipse cx="0" cy="-72" rx="16" ry="42" fill="#f8f8f0" stroke="#ddd" stroke-width="1" transform="rotate(80)"/>
    <ellipse cx="0" cy="-72" rx="16" ry="42" fill="#f8f8f0" stroke="#ddd" stroke-width="1" transform="rotate(120)"/>
    <ellipse cx="0" cy="-72" rx="16" ry="42" fill="#f8f8f0" stroke="#ddd" stroke-width="1" transform="rotate(160)"/>
    <ellipse cx="0" cy="-72" rx="16" ry="42" fill="#f8f8f0" stroke="#ddd" stroke-width="1" transform="rotate(200)"/>
    <ellipse cx="0" cy="-72" rx="16" ry="42" fill="#f8f8f0" stroke="#ddd" stroke-width="1" transform="rotate(240)"/>
    <ellipse cx="0" cy="-72" rx="16" ry="42" fill="#f8f8f0" stroke="#ddd" stroke-width="1" transform="rotate(280)"/>
    <ellipse cx="0" cy="-72" rx="16" ry="42" fill="#fffde0" stroke="#ddd" stroke-width="1" transform="rotate(320)"/>
    <circle r="36" fill="url(#ctr1)"/>
    <circle r="20" fill="#c87000" opacity="0.5"/>
  </g>
  <path d="M300,226 Q294,310 290,390" stroke="#3d6b35" stroke-width="6" fill="none" stroke-linecap="round"/>
  <ellipse cx="270" cy="320" rx="30" ry="13" fill="#4a7c42" transform="rotate(-35,270,320)"/>
  <ellipse cx="315" cy="355" rx="28" ry="12" fill="#4a7c42" transform="rotate(25,315,355)"/>
</svg>
