<svg xmlns="http://www.w3.org/2000/svg" viewBox="0 0 600 400">
  <defs>
    <linearGradient id="bg3" x1="0%" y1="0%" x2="0%" y2="100%">
      <stop offset="0%" stop-color="#fff8e1"/>
      <stop offset="100%" stop-color="#ffe0b2"/>
    </linearGradient>
    <radialGradient id="sunCenter" cx="50%" cy="50%" r="50%">
      <stop offset="0%" stop-color="#6d4c41"/>
      <stop offset="100%" stop-color="#3e2723"/>
    </radialGradient>
  </defs>
  <rect width="600" height="400" fill="url(#bg3)"/>
  <rect y="300" width="600" height="100" fill="#558b2f" opacity="0.55"/>
  <g transform="translate(300,185)">
    <ellipse cx="0" cy="-88" rx="14" ry="50" fill="#fdd835" transform="rotate(0)"/>
    <ellipse cx="0" cy="-88" rx="14" ry="50" fill="#fbc02d" transform="rotate(24)"/>
    <ellipse cx="0" cy="-88" rx="14" ry="50" fill="#fdd835" transform="rotate(48)"/>
    <ellipse cx="0" cy="-88" rx="14" ry="50" fill="#fbc02d" transform="rotate(72)"/>
    <ellipse cx="0" cy="-88" rx="14" ry="50" fill="#fdd835" transform="rotate(96)"/>
    <ellipse cx="0" cy="-88" rx="14" ry="50" fill="#fbc02d" transform="rotate(120)"/>
    <ellipse cx="0" cy="-88" rx="14" ry="50" fill="#fdd835" transform="rotate(144)"/>
    <ellipse cx="0" cy="-88" rx="14" ry="50" fill="#fbc02d" transform="rotate(168)"/>
    <ellipse cx="0" cy="-88" rx="14" ry="50" fill="#fdd835" transform="rotate(192)"/>
    <ellipse cx="0" cy="-88" rx="14" ry="50" fill="#fbc02d" transform="rotate(216)"/>
    <ellipse cx="0" cy="-88" rx="14" ry="50" fill="#fdd835" transform="rotate(240)"/>
    <ellipse cx="0" cy="-88" rx="14" ry="50" fill="#fbc02d" transform="rotate(264)"/>
    <ellipse cx="0" cy="-88" rx="14" ry="50" fill="#fdd835" transform="rotate(288)"/>
    <ellipse cx="0" cy="-88" rx="14" ry="50" fill="#fbc02d" transform="rotate(312)"/>
    <ellipse cx="0" cy="-88" rx="14" ry="50" fill="#fdd835" transform="rotate(336)"/>
    <circle r="48" fill="url(#sunCenter)"/>
    <circle r="32" fill="#4e342e" opacity="0.7"/>
  </g>
  <path d="M300,233 Q296,315 293,395" stroke="#33691e" stroke-width="8" fill="none" stroke-linecap="round"/>
  <ellipse cx="268" cy="315" rx="40" ry="16" fill="#558b2f" transform="rotate(-30,268,315)"/>
  <ellipse cx="326" cy="355" rx="36" ry="14" fill="#558b2f" transform="rotate(20,326,355)"/>
</svg>
