<svg width="100%" height="auto" viewBox="0 0 400 600" xmlns="http://www.w3.org/2000/svg" style="max-width: 400px;">
  <!-- Background -->
  <rect width="400" height="600" fill="#f8fafc"/>
  
  <!-- Title -->
  <text x="200" y="25" text-anchor="middle" font-family="Arial, sans-serif" font-size="16" font-weight="bold" fill="#1e293b">CSS Grid vs Flexbox</text>
  
  <!-- Flexbox Section -->
  <g>
    <text x="200" y="55" text-anchor="middle" font-family="Arial, sans-serif" font-size="14" font-weight="bold" fill="#3b82f6">Flexbox (1D)</text>
    
    <!-- Flexbox container -->
    <rect x="20" y="70" width="360" height="100" fill="#dbeafe" stroke="#3b82f6" stroke-width="2" rx="8"/>
    <text x="200" y="90" text-anchor="middle" font-family="Arial, sans-serif" font-size="10" fill="#1e40af">display: flex</text>
    
    <!-- Flexbox items -->
    <rect x="40" y="100" width="70" height="30" fill="#3b82f6" rx="4"/>
    <rect x="120" y="100" width="70" height="30" fill="#3b82f6" rx="4"/>
    <rect x="200" y="100" width="70" height="30" fill="#3b82f6" rx="4"/>
    <rect x="280" y="100" width="70" height="30" fill="#3b82f6" rx="4"/>
    
    <!-- Arrow showing direction -->
    <path d="M 40 150 L 350 150" stroke="#3b82f6" stroke-width="2" marker-end="url(#arrowhead)"/>
    <text x="200" y="165" text-anchor="middle" font-family="Arial, sans-serif" font-size="10" fill="#1e40af">Tek yön (row/column)</text>
  </g>
  
  <!-- CSS Grid Section -->
  <g>
    <text x="200" y="200" text-anchor="middle" font-family="Arial, sans-serif" font-size="14" font-weight="bold" fill="#10b981">CSS Grid (2D)</text>
    
    <!-- Grid container -->
    <rect x="20" y="220" width="360" height="120" fill="#d1fae5" stroke="#10b981" stroke-width="2" rx="8"/>
    <text x="200" y="240" text-anchor="middle" font-family="Arial, sans-serif" font-size="10" fill="#047857">display: grid</text>
    
    <!-- Grid items -->
    <rect x="40" y="250" width="80" height="30" fill="#10b981" rx="4"/>
    <rect x="130" y="250" width="80" height="30" fill="#10b981" rx="4"/>
    <rect x="220" y="250" width="80" height="30" fill="#10b981" rx="4"/>
    <rect x="310" y="250" width="50" height="30" fill="#10b981" rx="4"/>
    
    <rect x="40" y="290" width="80" height="30" fill="#10b981" rx="4"/>
    <rect x="130" y="290" width="80" height="30" fill="#10b981" rx="4"/>
    <rect x="220" y="290" width="80" height="30" fill="#10b981" rx="4"/>
    <rect x="310" y="290" width="50" height="30" fill="#10b981" rx="4"/>
    
    <!-- Arrows showing 2D -->
    <path d="M 40 350 L 360 350" stroke="#10b981" stroke-width="2" marker-end="url(#arrowhead2)"/>
    <path d="M 30 250 L 30 330" stroke="#10b981" stroke-width="2" marker-end="url(#arrowhead2)"/>
    <text x="200" y="365" text-anchor="middle" font-family="Arial, sans-serif" font-size="10" fill="#047857">İki boyutlu (rows + columns)</text>
  </g>
  
  <!-- Use Cases -->
  <g>
    <text x="100" y="400" text-anchor="middle" font-family="Arial, sans-serif" font-size="12" font-weight="bold" fill="#3b82f6">Ne Zaman Kullanılır?</text>
    <text x="100" y="415" text-anchor="middle" font-family="Arial, sans-serif" font-size="9" fill="#1e40af">• Navigation bars</text>
    <text x="100" y="428" text-anchor="middle" font-family="Arial, sans-serif" font-size="9" fill="#1e40af">• Button groups</text>
    <text x="100" y="441" text-anchor="middle" font-family="Arial, sans-serif" font-size="9" fill="#1e40af">• Centering content</text>
    <text x="100" y="454" text-anchor="middle" font-family="Arial, sans-serif" font-size="9" fill="#1e40af">• Component layouts</text>
    
    <text x="300" y="400" text-anchor="middle" font-family="Arial, sans-serif" font-size="12" font-weight="bold" fill="#10b981">Ne Zaman Kullanılır?</text>
    <text x="300" y="415" text-anchor="middle" font-family="Arial, sans-serif" font-size="9" fill="#047857">• Page layouts</text>
    <text x="300" y="428" text-anchor="middle" font-family="Arial, sans-serif" font-size="9" fill="#047857">• Card grids</text>
    <text x="300" y="441" text-anchor="middle" font-family="Arial, sans-serif" font-size="9" fill="#047857">• Complex designs</text>
    <text x="300" y="454" text-anchor="middle" font-family="Arial, sans-serif" font-size="9" fill="#047857">• Magazine layouts</text>
  </g>
  
  <!-- Best Practice -->
  <rect x="50" y="480" width="300" height="40" fill="#fef3c7" stroke="#f59e0b" stroke-width="2" rx="8"/>
  <text x="200" y="495" text-anchor="middle" font-family="Arial, sans-serif" font-size="11" font-weight="bold" fill="#92400e">💡 İkisini birlikte kullanın!</text>
  <text x="200" y="510" text-anchor="middle" font-family="Arial, sans-serif" font-size="9" fill="#92400e">Grid: sayfa düzeni, Flexbox: bileşenler</text>
  
  <!-- Arrow markers -->
  <defs>
    <marker id="arrowhead" markerWidth="8" markerHeight="6" refX="7" refY="3" orient="auto">
      <polygon points="0 0, 8 3, 0 6" fill="#3b82f6"/>
    </marker>
    <marker id="arrowhead2" markerWidth="8" markerHeight="6" refX="7" refY="3" orient="auto">
      <polygon points="0 0, 8 3, 0 6" fill="#10b981"/>
    </marker>
  </defs>
</svg>
